<svg width="379" height="263" version="1.1" xmlns="http://www.w3.org/2000/svg" desc="Created with imagetracer.js version 1.2.6" ><path fill="rgb(0,0,0)" stroke="rgb(0,0,0)" stroke-width="1" opacity="0" d="M 0 0 L 379 0 L 379 263 L 0 263 L 0 0 Z M 191 47 L 182 50 L 177 56 L 178 64 Q 184 71 193 75 L 250 101 L 244 104 L 234 115 L 214 102 L 202 98 L 188 97 L 187 96 L 171 97 L 156 101 Q 141 106 131 116 Q 119 127 113 144 L 109 143 L 103 144 L 97 147 L 93 156 L 93 160 L 96 167 L 99 169 L 107 172 L 112 171 L 119 188 Q 124 194 133 197 L 149 201 L 159 201 L 159 204 L 141 220 L 133 229 L 133 232 L 136 234 L 142 236 L 158 235 L 172 230 Q 193 219 211 204 L 223 205 L 242 211 L 249 211 L 252 206 L 249 197 Q 243 188 233 184 L 250 164 L 269 165 L 270 166 L 289 166 Q 290 164 296 165 L 306 161 Q 310 158 311 153 L 310 141 L 302 124 L 283 99 Q 261 74 232 57 Q 222 51 209 48 L 191 47 Z " /><path fill="rgb(90,112,248)" stroke="rgb(90,112,248)" stroke-width="1" opacity="0.9921568627450981" d="M 191.5 48 L 202.5 48 L 204.5 50 L 208.5 49 L 227.5 56 L 254 73 Q 252.9 75.7 255.5 75 L 257 78 L 260 79.5 L 261 83.5 L 259.5 84 L 257.5 80 L 257 83.5 L 261 87.5 L 260 88.5 L 259.5 90 L 259 87 L 257 87.5 L 258 90 L 256 90.5 L 258.5 92 L 260 91.5 Q 255.7 93.8 257.5 96 L 255 96.5 L 256 101.5 L 254.5 103 L 253.5 101 Q 250.7 102.3 253 103.5 L 254 107.5 L 251 109 L 248 119.5 L 249 121.5 L 246 125.5 L 243 140.5 L 240 146.5 L 240 155.5 L 236 161.5 L 235 168 L 233 168.5 Q 234.3 171.3 235.5 169 Q 238.1 168.3 237 171 L 234 172.5 Q 236.3 173.8 233.5 175 L 232 175.5 L 234 179.5 L 232 179.5 L 233 181.5 L 232 183.5 L 232.5 185 L 224.5 181 L 213.5 179 L 212 177.5 L 214 165.5 L 211 152 L 209 152 Q 210.3 147.9 207 149 Q 208.3 153.1 205 152 L 204 145.5 L 194.5 135 L 185.5 129 L 183 129 Q 184.3 126 180.5 127 L 177 125.5 L 179.5 124 L 184 125 L 182 121 Q 186 122.4 184 115.5 L 185 113.5 L 184 111 L 187 109.5 Q 188.3 105.8 184.5 107 L 179 104.5 L 182.5 103 L 184 103.5 Q 183.3 101.3 185.5 102 L 190 99.5 L 188.5 99 L 184.5 100 L 183.5 99 L 170 98.5 L 178.5 97 L 188.5 97 L 208.5 101 L 222.5 108 L 228 112.5 L 228.5 114 L 230 113.5 L 231.5 116 L 233.5 117 L 238 110 L 252 100.5 Q 231.8 89.7 208.5 82 L 195 74.5 L 195.5 73 L 196 75 Q 198.7 76.1 198 73.5 L 201.5 72 L 205 69.5 Q 206.1 65.3 202 67 L 202 64 L 204 63.5 Q 202.6 60.9 198 61.5 Q 200.3 60.3 197.5 59 L 196 58.5 L 199.5 57 L 201 57.5 L 200 54.5 L 201 52.5 L 200.5 51 L 202 50.5 Q 199 47.5 191.5 49 L 191.5 48 Z M 202 52 Q 201 55 204 54 Q 205 51 202 52 Z M 206 63 L 208 66 Q 209 62 206 63 Z M 205 75 L 205 76 L 207 76 L 205 75 Z M 206 77 Q 204 80 207 79 L 206 77 Z M 187 102 L 187 103 L 189 103 L 187 102 Z M 232 171 L 232 173 L 234 172 L 232 171 Z " /><path fill="rgb(90,112,248)" stroke="rgb(90,112,248)" stroke-width="1" opacity="0.9921568627450981" d="M 186 49 L 190 49.5 L 186 51 L 186 49 Z " /><path fill="rgb(90,112,248)" stroke="rgb(90,112,248)" stroke-width="1" opacity="0.9921568627450981" d="M 181.5 51 L 181.5 54 Q 180.3 51.8 179 54.5 Q 179.8 58.3 177.5 59 L 177 56.5 L 181.5 51 Z " /><path fill="rgb(90,112,248)" stroke="rgb(90,112,248)" stroke-width="1" opacity="0.9921568627450981" d="M 189.5 53 L 192 54.5 L 191.5 56 L 191 54 L 189.5 53 Z " /><path fill="rgb(90,112,248)" stroke="rgb(90,112,248)" stroke-width="1" opacity="0.9921568627450981" d="M 179.5 62 L 180.5 64 L 182 63.5 Q 182.8 65.8 180.5 65 L 179.5 62 Z " /><path fill="rgb(90,112,248)" stroke="rgb(90,112,248)" stroke-width="1" opacity="0.9921568627450981" d="M 183.5 65 L 184.5 68 L 186 68.5 L 184.5 69 Q 180 67 183.5 65 Z " /><path fill="rgb(90,112,248)" stroke="rgb(90,112,248)" stroke-width="1" opacity="0.9921568627450981" d="M 188.5 68 L 188.5 70 L 191.5 69 L 191.5 70 L 190 70.5 L 192.5 74 L 187 70.5 L 188.5 68 Z " /><path fill="rgb(90,112,248)" stroke="rgb(90,112,248)" stroke-width="1" opacity="0.9921568627450981" d="M 261.5 80 L 264.5 84 L 261 81.5 L 261.5 80 Z " /><path fill="rgb(90,112,248)" stroke="rgb(90,112,248)" stroke-width="1" opacity="0.9921568627450981" d="M 165.5 99 L 167 101.5 L 165.5 101 L 164 100.5 L 165.5 99 Z " /><path fill="rgb(90,112,248)" stroke="rgb(90,112,248)" stroke-width="1" opacity="0.9921568627450981" d="M 161.5 100 L 163 100.5 L 157.5 104 L 155 102.5 L 156.5 102 L 158 102.5 Q 157.2 99.9 160.5 101 L 161.5 100 Z " /><path fill="rgb(90,112,248)" stroke="rgb(90,112,248)" stroke-width="1" opacity="0.9921568627450981" d="M 152.5 103 L 154 103.5 L 146.5 107 L 146.5 106 L 152.5 103 Z " /><path fill="rgb(90,112,248)" stroke="rgb(90,112,248)" stroke-width="1" opacity="0.9921568627450981" d="M 144.5 107 L 143.5 109 L 144.5 107 Z " /><path fill="rgb(90,112,248)" stroke="rgb(90,112,248)" stroke-width="1" opacity="0.9921568627450981" d="M 137.5 112 L 135.5 115 L 137.5 112 Z " /><path fill="rgb(90,112,248)" stroke="rgb(90,112,248)" stroke-width="1" opacity="0.9921568627450981" d="M 133.5 115 L 135.5 118 L 133.5 115 Z " /><path fill="rgb(90,112,248)" stroke="rgb(90,112,248)" stroke-width="1" opacity="0.9921568627450981" d="M 131.5 117 L 130.5 119 L 131.5 117 Z " /><path fill="rgb(90,112,248)" stroke="rgb(90,112,248)" stroke-width="1" opacity="0.9921568627450981" d="M 127.5 121 L 126 123.5 Q 126.8 125.8 124.5 125 L 127.5 121 Z " /><path fill="rgb(90,112,248)" stroke="rgb(90,112,248)" stroke-width="1" opacity="0.9921568627450981" d="M 123.5 126 L 124 128 L 122 127.5 L 123.5 126 Z " /><path fill="rgb(90,112,248)" stroke="rgb(90,112,248)" stroke-width="1" opacity="0.9921568627450981" d="M 115.5 140 L 116.5 142 L 115.5 140 Z " /><path fill="rgb(90,112,248)" stroke="rgb(90,112,248)" stroke-width="1" opacity="0.9921568627450981" d="M 110.5 144 L 111.5 146 L 110.5 144 Z " /><path fill="rgb(90,112,248)" stroke="rgb(90,112,248)" stroke-width="1" opacity="0.9921568627450981" d="M 102.5 145 L 103.5 147 L 102.5 145 Z " /><path fill="rgb(90,112,248)" stroke="rgb(90,112,248)" stroke-width="1" opacity="0.9921568627450981" d="M 100.5 147 L 102 147.5 L 99.5 149 L 100.5 147 Z " /><path fill="rgb(90,112,248)" stroke="rgb(90,112,248)" stroke-width="1" opacity="0.9921568627450981" d="M 97.5 149 L 96 151.5 L 95.5 153 L 95 151.5 L 97.5 149 Z " /><path fill="rgb(90,112,248)" stroke="rgb(90,112,248)" stroke-width="1" opacity="0.9921568627450981" d="M 94.5 157 L 97 163.5 L 95 162.5 L 94.5 157 Z " /><path fill="rgb(90,112,248)" stroke="rgb(90,112,248)" stroke-width="1" opacity="0.9921568627450981" d="M 98.5 165 L 101 168.5 L 99.5 168 Q 96.4 168.7 98.5 165 Z " /><path fill="rgb(90,112,248)" stroke="rgb(90,112,248)" stroke-width="1" opacity="0.9921568627450981" d="M 242.5 168 L 243.5 170 L 242.5 169 L 240 170.5 L 242.5 168 Z " /><path fill="rgb(90,112,248)" stroke="rgb(90,112,248)" stroke-width="1" opacity="0.9921568627450981" d="M 104.5 169 L 107.5 170 L 109.5 169 L 110.5 171 L 108.5 170 L 104 171 L 104.5 169 Z " /><path fill="rgb(90,112,248)" stroke="rgb(90,112,248)" stroke-width="1" opacity="0.9921568627450981" d="M 239.5 172 L 240.5 174 Q 239.3 171.8 238 174.5 L 237.5 176 L 237 173 L 239.5 172 Z " /><path fill="rgb(90,112,248)" stroke="rgb(90,112,248)" stroke-width="1" opacity="0.9921568627450981" d="M 114.5 175 L 115.5 177 L 114.5 175 Z " /><path fill="rgb(90,112,248)" stroke="rgb(90,112,248)" stroke-width="1" opacity="0.9921568627450981" d="M 235.5 176 L 234.5 178 L 235.5 176 Z " /><path fill="rgb(90,112,248)" stroke="rgb(90,112,248)" stroke-width="1" opacity="0.9921568627450981" d="M 235.5 186 L 241 189.5 L 239.5 190 Q 237.7 186.9 236 188.5 L 235.5 186 Z " /><path fill="rgb(90,112,248)" stroke="rgb(90,112,248)" stroke-width="1" opacity="0.9921568627450981" d="M 124.5 190 Q 126.8 189.3 126 191.5 L 124.5 190 Z " /><path fill="rgb(90,112,248)" stroke="rgb(90,112,248)" stroke-width="1" opacity="0.9921568627450981" d="M 242.5 191 L 245 192 L 246 196 L 248 196.5 L 247.5 198 L 249 198.5 L 247.5 199 L 242.5 191 Z " /><path fill="rgb(90,112,248)" stroke="rgb(90,112,248)" stroke-width="1" opacity="0.9921568627450981" d="M 134.5 195 L 135.5 197 L 134.5 195 Z " /><path fill="rgb(90,112,248)" stroke="rgb(90,112,248)" stroke-width="1" opacity="0.9921568627450981" d="M 140.5 197 L 145 198.5 L 142.5 199 L 140.5 197 Z " /><path fill="rgb(90,112,248)" stroke="rgb(90,112,248)" stroke-width="1" opacity="0.9921568627450981" d="M 160.5 200 L 163 200.5 L 162.5 202 Q 164.8 201.3 164 203.5 L 165 203.5 Q 164.3 201.3 166.5 202 L 168 201.5 L 167 203.5 L 175.5 205 L 198 212.5 L 177.5 226 L 169.5 230 L 166.5 230 L 164.5 232 L 151.5 235 L 141.5 235 Q 140 231.5 138.5 234 L 134 231.5 L 134.5 229 L 137.5 233 L 140.5 232 L 144.5 233 L 147.5 232 L 152.5 233 L 153 230.5 Q 154.3 226.8 150.5 228 L 147.5 229 L 143 225.5 L 143.5 223 L 145.5 227 L 153.5 226 L 155 224.5 L 153.5 221 L 151 219.5 Q 151.8 217.3 149.5 218 L 144.5 219 L 142.5 221 L 149.5 213 Q 152.8 214.1 152 211.5 L 161 201.5 L 160.5 200 Z M 162 202 L 161 205 L 162 205 L 162 202 Z M 159 207 L 156 210 L 157 211 L 160 209 L 159 207 Z M 153 213 L 154 216 L 152 214 L 150 215 L 152 218 L 155 219 L 157 218 L 156 214 L 153 213 Z M 148 216 L 146 218 L 148 218 L 148 216 Z " /><path fill="rgb(90,112,248)" stroke="rgb(90,112,248)" stroke-width="1" opacity="0.9921568627450981" d="M 209.5 201 L 211 203.5 L 210 203.5 L 209.5 201 Z " /><path fill="rgb(90,112,248)" stroke="rgb(90,112,248)" stroke-width="1" opacity="0.9921568627450981" d="M 215.5 201 L 216.5 203 L 214 202.5 L 215.5 201 Z " /><path fill="rgb(90,112,248)" stroke="rgb(90,112,248)" stroke-width="1" opacity="0.9921568627450981" d="M 250.5 202 L 251 205.5 L 250 205.5 L 249 203.5 L 250.5 202 Z " /><path fill="rgb(90,112,248)" stroke="rgb(90,112,248)" stroke-width="1" opacity="0.9921568627450981" d="M 221.5 203 L 231 206.5 L 229.5 206 L 221.5 204 L 221.5 203 Z " /><path fill="rgb(90,112,248)" stroke="rgb(90,112,248)" stroke-width="1" opacity="0.9921568627450981" d="M 249.5 207 L 250 208.5 L 247 210 L 247.5 208 L 249 208.5 L 249.5 207 Z " /><path fill="rgb(90,112,248)" stroke="rgb(90,112,248)" stroke-width="1" opacity="0.9921568627450981" d="M 202.5 209 L 201.5 211 L 202.5 209 Z " /><path fill="rgb(90,112,248)" stroke="rgb(90,112,248)" stroke-width="1" opacity="0.9921568627450981" d="M 149.5 220 L 148.5 222 L 147 221.5 L 149.5 220 Z " /><path fill="rgb(90,112,248)" stroke="rgb(90,112,248)" stroke-width="1" opacity="0.9921568627450981" d="M 140.5 221 Q 144 223 139.5 225 L 138.5 224 L 134 227.5 L 140.5 221 Z " /><path fill="rgb(90,112,248)" stroke="rgb(90,112,248)" stroke-width="1" opacity="0.9921568627450981" d="M 138.5 226 L 137.5 228 L 138.5 226 Z " /><path fill="rgb(90,112,248)" stroke="rgb(90,112,248)" stroke-width="1" opacity="0.9921568627450981" d="M 142.5 229 L 144 231.5 L 142.5 231 L 141 230.5 L 142.5 229 Z " /><path fill="rgb(76,100,253)" stroke="rgb(76,100,253)" stroke-width="1" opacity="0.996078431372549" d="M 190.5 49 Q 198.7 47.3 202 50.5 L 200 51.5 L 201 53.5 L 200 55.5 L 201.5 55 L 203 55.5 L 201 56 L 200.5 58 L 198.5 58 L 196 58.5 L 199 60.5 L 198.5 62 Q 203 61 204 63.5 L 202 64 L 202 67 Q 206.1 65.3 205 69.5 L 201 72.5 L 203 73.5 L 200.5 75 L 198 73.5 Q 198.7 76.1 196 75 L 195.5 73 L 194.5 75 L 187.5 69 L 186 69.5 Q 186.8 67.3 184.5 68 L 181 65.5 L 182 63.5 L 180 63.5 Q 180.8 61.3 178.5 62 L 178 59.5 L 179 54.5 L 182.5 51 L 185.5 50 L 187.5 51 L 190.5 49 Z " /><path fill="rgb(76,100,253)" stroke="rgb(76,100,253)" stroke-width="1" opacity="0.996078431372549" d="M 202 52 Q 205 51 204 54 Q 201 55 202 52 Z " /><path fill="rgb(76,100,253)" stroke="rgb(76,100,253)" stroke-width="1" opacity="0.996078431372549" d="M 205.5 63 Q 209.3 61.8 208 65.5 L 205.5 63 Z " /><path fill="rgb(76,100,253)" stroke="rgb(76,100,253)" stroke-width="1" opacity="0.996078431372549" d="M 205.5 73 L 208 74.5 L 207.5 77 L 204.5 76 L 202.5 77 L 202.5 76 L 207 74.5 L 205.5 73 Z " /><path fill="rgb(76,100,253)" stroke="rgb(76,100,253)" stroke-width="1" opacity="0.996078431372549" d="M 205.5 77 L 207.5 80 L 205 79 L 205.5 77 Z " /><path fill="rgb(76,100,253)" stroke="rgb(76,100,253)" stroke-width="1" opacity="0.996078431372549" d="M 248.5 96 L 249.5 98 L 248.5 96 Z " /><path fill="rgb(76,100,253)" stroke="rgb(76,100,253)" stroke-width="1" opacity="0.996078431372549" d="M 166.5 99 L 168.5 100 L 169.5 99 L 183.5 99 L 187.5 100 L 189.5 99 L 188.5 101 L 186 101.5 L 189 102.5 L 186.5 103 L 184 102 L 183.5 104 L 181.5 103 L 179 104.5 L 180.5 106 L 187 107 L 185.5 111 Q 183.3 110.3 184 112.5 L 186 112.5 Q 182.8 115 184 121 Q 181 120 182 123 Q 185 122 184 125 L 178.5 124 L 177.5 126 L 183 127 Q 181.8 130 185.5 129 L 200 140.5 L 204 145.5 L 205 152 L 207 152 Q 205.7 147.9 209 149 L 209 152 Q 212 150.8 211 154.5 L 213 158.5 L 214 169.5 L 212 177.5 L 213.5 179 L 229.5 183 L 236 187.5 L 236.5 189 Q 238 186.5 239.5 190 L 245 194.5 L 245.5 196 L 247 195.5 L 246 197.5 L 248 197.5 L 247.5 199 Q 249.8 198.3 249 200.5 L 250 202.5 L 250 204.5 L 251 207.5 L 249 207.5 L 248.5 209 L 247 208.5 Q 247.9 211.9 242.5 210 L 232.5 206 Q 231 208.5 229.5 205 L 224.5 204 L 223 204.5 L 223.5 203 L 219.5 204 L 216.5 202 L 210 202.5 L 206.5 207 L 199.5 212 L 196.5 212 L 175.5 205 L 167 203.5 L 168 201.5 L 166.5 202 Q 164.3 201.3 165 203.5 L 164 203.5 Q 164.7 200.9 162 202 L 161.5 205 L 161 202.5 Q 163.3 201.3 160.5 200 L 158.5 200 L 153.5 199 L 151.5 200 L 148.5 199 L 140.5 197 L 138 198 L 137.5 196 L 136.5 197 Q 134.8 193.9 133 195.5 L 132.5 194 L 130.5 195 L 130.5 193 L 128.5 194 L 128 192 Q 125 193 126 190 L 123.5 190 Q 118.3 186.3 116 179.5 L 116.5 178 L 115 177.5 L 116 176.5 L 114 172.5 L 112.5 170 L 108.5 171 L 104.5 169 L 102.5 169 Q 100.3 169.8 101 167.5 L 96 164.5 L 96 162.5 L 94 155.5 L 100.5 146 L 106.5 144 L 108.5 145 L 112.5 145 L 115 143.5 L 117 135.5 L 121 128 L 124 128 L 124 125 Q 126.7 126.1 126 123.5 L 129.5 119 L 132 117.5 L 134 114.5 L 138 112.5 Q 137.3 110.3 139.5 111 L 157.5 102 L 159.5 102 L 163.5 100 L 166 101 L 166.5 99 Z " /><path fill="rgb(76,100,253)" stroke="rgb(76,100,253)" stroke-width="1" opacity="0.996078431372549" d="M 158.5 207 L 159.5 209 L 154 213.5 L 155.5 214 L 157 213.5 L 156 216.5 Q 158.3 217.8 155.5 219 L 152 218 L 151.5 216 Q 150.3 218.3 149 215.5 L 152 213.5 L 151.5 212 L 153.5 213 L 158.5 207 Z " /><path fill="rgb(76,100,253)" stroke="rgb(76,100,253)" stroke-width="1" opacity="0.996078431372549" d="M 159.5 210 L 158.5 212 L 159.5 210 Z " /><path fill="rgb(76,100,253)" stroke="rgb(76,100,253)" stroke-width="1" opacity="0.996078431372549" d="M 158.5 214 L 157.5 216 L 158.5 214 Z " /><path fill="rgb(76,100,253)" stroke="rgb(76,100,253)" stroke-width="1" opacity="0.996078431372549" d="M 147.5 216 L 148 218 L 146 217.5 L 147.5 216 Z " /><path fill="rgb(76,100,253)" stroke="rgb(76,100,253)" stroke-width="1" opacity="0.996078431372549" d="M 149.5 218 Q 151.8 217.3 151 219.5 L 155 222.5 L 153.5 226 Q 147.8 225.3 145 227.5 L 149.5 229 L 153 228 L 152 231.5 L 152.5 233 L 147.5 232 L 144.5 233 L 139.5 232 L 139.5 234 L 135 230.5 L 134 228.5 Q 138.8 220.3 149.5 218 Z M 144 223 L 143 226 L 144 226 L 144 223 Z M 143 229 L 141 231 L 143 231 L 143 229 Z " /><path fill="rgb(124,143,252)" stroke="rgb(124,143,252)" stroke-width="1" opacity="0.9098039215686274" d="M 190.5 47 L 208.5 48 Q 221.6 50.9 231.5 57 Q 261 74 283 98.5 L 302 123.5 L 310 140.5 L 311 152.5 Q 309.8 158.3 305.5 161 L 295.5 165 Q 290 163.5 288.5 166 L 269.5 166 L 268.5 165 L 249.5 164 L 233 183.5 L 239 187.5 L 237.5 187 L 232 183.5 Q 232.8 181.3 230.5 182 L 230.5 181 Q 232.8 181.8 232 179.5 L 233 176.5 L 232.5 175 L 235 173.5 L 232 172.5 Q 231.3 170.3 233.5 171 L 235.5 171 Q 238.1 171.7 237 169 L 234.5 170 L 233.5 168 Q 236.1 168.8 235 165.5 L 240 155.5 L 240 146.5 L 243 140.5 L 246 125.5 L 249 120.5 L 248 117.5 Q 251.7 115.1 251 109 L 254 107.5 L 252 102.5 L 254 101.5 L 254.5 103 L 256 101.5 L 254.5 98 L 253 97.5 L 255 96.5 L 254 94.5 L 256 93.5 L 255 96 L 258 95.5 Q 255.5 94 259 92.5 L 257.5 91 L 256 90.5 L 258 90 L 256 85.5 L 257 85.5 Q 256.3 88.1 259 87 L 259 89.5 L 260 89.5 L 261 87.5 L 257 83.5 L 257 80.5 L 258.5 78 Q 256.3 78.8 257 76.5 L 255 77.5 L 255.5 79 L 253 77.5 L 256 75.5 L 254 75 Q 255.1 72.3 252.5 73 L 251 73.5 Q 253.7 71.8 249.5 70 L 247.5 71 L 247.5 69 L 227.5 56 L 218.5 52 L 202.5 48 L 191.5 48 L 183.5 50 L 178.5 54 L 181.5 50 L 190.5 47 Z M 260 79 L 258 81 L 260 84 L 261 84 L 260 79 Z M 262 80 L 261 82 L 264 83 L 262 80 Z M 237 173 L 238 176 L 239 174 L 237 173 Z " /><path fill="rgb(124,143,252)" stroke="rgb(124,143,252)" stroke-width="1" opacity="0.9098039215686274" d="M 177.5 59 Q 178.9 66.1 184.5 69 L 188 71.5 L 185.5 70 L 178 63.5 L 177.5 59 Z " /><path fill="rgb(124,143,252)" stroke="rgb(124,143,252)" stroke-width="1" opacity="0.9098039215686274" d="M 249.5 72 L 248.5 74 L 249.5 72 Z " /><path fill="rgb(124,143,252)" stroke="rgb(124,143,252)" stroke-width="1" opacity="0.9098039215686274" d="M 191.5 73 L 208 81.5 L 206.5 81 L 192.5 75 L 191.5 73 Z " /><path fill="rgb(124,143,252)" stroke="rgb(124,143,252)" stroke-width="1" opacity="0.9098039215686274" d="M 209.5 82 L 213 83.5 L 211.5 84 L 209.5 82 Z " /><path fill="rgb(124,143,252)" stroke="rgb(124,143,252)" stroke-width="1" opacity="0.9098039215686274" d="M 214.5 84 L 220 86.5 L 218.5 87 L 214.5 85 L 214.5 84 Z " /><path fill="rgb(124,143,252)" stroke="rgb(124,143,252)" stroke-width="1" opacity="0.9098039215686274" d="M 221.5 87 L 225 88.5 L 223.5 89 L 221.5 87 Z " /><path fill="rgb(124,143,252)" stroke="rgb(124,143,252)" stroke-width="1" opacity="0.9098039215686274" d="M 228.5 90 L 232 91.5 L 230.5 92 L 228.5 90 Z " /><path fill="rgb(124,143,252)" stroke="rgb(124,143,252)" stroke-width="1" opacity="0.9098039215686274" d="M 233.5 92 L 239 94.5 L 237.5 95 L 233.5 93 L 233.5 92 Z " /><path fill="rgb(124,143,252)" stroke="rgb(124,143,252)" stroke-width="1" opacity="0.9098039215686274" d="M 240.5 95 L 252 100.5 L 245 105.5 L 246.5 108 L 243.5 106 L 243.5 108 L 242.5 107 L 239.5 110 Q 237.3 109.3 238 111.5 L 234 116.5 L 234.5 118 L 231.5 116 L 231.5 118 L 230 114.5 L 229.5 113 L 228 113.5 L 226.5 111 Q 218.1 103.9 206 100.5 L 208.5 100 Q 223.1 105.4 233.5 115 L 243.5 104 L 250 100.5 L 240.5 96 L 240.5 95 Z " /><path fill="rgb(124,143,252)" stroke="rgb(124,143,252)" stroke-width="1" opacity="0.9098039215686274" d="M 181.5 96 L 187 96.5 L 181.5 97 L 181.5 96 Z " /><path fill="rgb(124,143,252)" stroke="rgb(124,143,252)" stroke-width="1" opacity="0.9098039215686274" d="M 170.5 97 L 178 97.5 Q 163.6 98.1 153.5 103 L 153.5 102 L 170.5 97 Z " /><path fill="rgb(124,143,252)" stroke="rgb(124,143,252)" stroke-width="1" opacity="0.9098039215686274" d="M 189.5 97 L 196.5 97 L 205 99.5 L 202.5 100 Q 197.9 97.1 189.5 98 L 189.5 97 Z " /><path fill="rgb(124,143,252)" stroke="rgb(124,143,252)" stroke-width="1" opacity="0.9098039215686274" d="M 150.5 103 L 152 103.5 Q 134.5 110.5 124 124.5 Q 117.8 131.8 114.5 142 L 114 140.5 Q 119.7 125.7 130.5 116 L 150.5 103 Z " /><path fill="rgb(124,143,252)" stroke="rgb(124,143,252)" stroke-width="1" opacity="0.9098039215686274" d="M 245.5 109 L 246.5 111 L 245.5 109 Z " /><path fill="rgb(124,143,252)" stroke="rgb(124,143,252)" stroke-width="1" opacity="0.9098039215686274" d="M 242.5 110 L 243.5 112 L 242.5 110 Z " /><path fill="rgb(124,143,252)" stroke="rgb(124,143,252)" stroke-width="1" opacity="0.9098039215686274" d="M 113.5 143 L 114 145 L 111 144.5 L 113.5 143 Z " /><path fill="rgb(124,143,252)" stroke="rgb(124,143,252)" stroke-width="1" opacity="0.9098039215686274" d="M 102.5 144 L 104 144.5 L 95.5 151 L 97 148.5 Q 96.3 146.3 98.5 147 L 102.5 144 Z " /><path fill="rgb(124,143,252)" stroke="rgb(124,143,252)" stroke-width="1" opacity="0.9098039215686274" d="M 93.5 155 L 94 159.5 L 93 159.5 L 93.5 155 Z " /><path fill="rgb(124,143,252)" stroke="rgb(124,143,252)" stroke-width="1" opacity="0.9098039215686274" d="M 94.5 161 L 98 168 L 104 170.5 L 102.5 171 L 96 166.5 L 94.5 161 Z " /><path fill="rgb(124,143,252)" stroke="rgb(124,143,252)" stroke-width="1" opacity="0.9098039215686274" d="M 111.5 170 Q 113.8 169.3 113 171.5 Q 115.6 185.4 125.5 192 Q 132 197 142 198.5 L 138.5 199 Q 126.1 195.9 119 187.5 L 114 178.5 Q 113.7 172.1 111.5 170 Z " /><path fill="rgb(124,143,252)" stroke="rgb(124,143,252)" stroke-width="1" opacity="0.9098039215686274" d="M 106.5 171 L 109 171.5 L 106.5 172 L 106.5 171 Z " /><path fill="rgb(124,143,252)" stroke="rgb(124,143,252)" stroke-width="1" opacity="0.9098039215686274" d="M 240.5 188 L 243.5 192 L 241 191 L 240.5 188 Z " /><path fill="rgb(124,143,252)" stroke="rgb(124,143,252)" stroke-width="1" opacity="0.9098039215686274" d="M 245.5 193 Q 249.8 195.8 251 201.5 L 250 201.5 L 245.5 193 Z " /><path fill="rgb(124,143,252)" stroke="rgb(124,143,252)" stroke-width="1" opacity="0.9098039215686274" d="M 143.5 199 L 157 200.5 L 148.5 201 L 143.5 200 L 143.5 199 Z " /><path fill="rgb(124,143,252)" stroke="rgb(124,143,252)" stroke-width="1" opacity="0.9098039215686274" d="M 159 201 L 161 201.5 L 150.5 213 L 135.5 226 L 140.5 220 L 159 203.5 L 159 201 Z " /><path fill="rgb(124,143,252)" stroke="rgb(124,143,252)" stroke-width="1" opacity="0.9098039215686274" d="M 211.5 203 L 217.5 203 L 226 205.5 L 223.5 206 L 217.5 204 L 211.5 204 L 211.5 203 Z " /><path fill="rgb(124,143,252)" stroke="rgb(124,143,252)" stroke-width="1" opacity="0.9098039215686274" d="M 209.5 204 L 206.5 208 L 202.5 211 L 205.5 207 L 209.5 204 Z " /><path fill="rgb(124,143,252)" stroke="rgb(124,143,252)" stroke-width="1" opacity="0.9098039215686274" d="M 227.5 206 L 241.5 210 L 248.5 210 L 251 208.5 Q 249.3 212.8 241.5 211 L 227.5 207 L 227.5 206 Z " /><path fill="rgb(124,143,252)" stroke="rgb(124,143,252)" stroke-width="1" opacity="0.9098039215686274" d="M 200.5 211 L 199.5 213 Q 186.7 223.2 170.5 230 L 171.5 228 L 177.5 226 L 200.5 211 Z " /><path fill="rgb(124,143,252)" stroke="rgb(124,143,252)" stroke-width="1" opacity="0.9098039215686274" d="M 133.5 228 L 135.5 233 Q 141.4 236.1 151 235.5 L 141.5 236 L 135.5 234 L 133 231.5 L 133.5 228 Z " /><path fill="rgb(124,143,252)" stroke="rgb(124,143,252)" stroke-width="1" opacity="0.9098039215686274" d="M 166.5 230 L 169 230.5 L 165.5 232 L 166.5 230 Z " /><path fill="rgb(124,143,252)" stroke="rgb(124,143,252)" stroke-width="1" opacity="0.9098039215686274" d="M 162.5 232 L 164 232.5 L 159.5 234 L 159.5 233 L 162.5 232 Z " /><path fill="rgb(124,143,252)" stroke="rgb(124,143,252)" stroke-width="1" opacity="0.9098039215686274" d="M 152.5 234 L 158 234.5 L 152.5 235 L 152.5 234 Z " /></svg>