<svg xmlns="http://www.w3.org/2000/svg" viewBox="0 0 480 480" fill="none">
  <rect width="480" height="480" rx="120" fill="#3B99FC"/>
  <path d="M141.8 184.4c54.4-53.2 142.6-53.2 197 0l6.5 6.4a6.7 6.7 0 0 1 0 9.6l-22.4 21.8a3.5 3.5 0 0 1-4.9 0l-9-8.8c-37.9-37.1-99.4-37.1-137.4 0l-9.6 9.4a3.5 3.5 0 0 1-4.9 0l-22.4-21.8a6.7 6.7 0 0 1 0-9.6l7.1-7Zm243.4 45.3 19.9 19.5a6.7 6.7 0 0 1 0 9.6l-89.8 87.9a7 7 0 0 1-9.8 0l-63.7-62.4a1.7 1.7 0 0 0-2.4 0l-63.7 62.4a7 7 0 0 1-9.8 0l-89.8-87.9a6.7 6.7 0 0 1 0-9.6l19.9-19.5a7 7 0 0 1 9.8 0l63.7 62.4a1.7 1.7 0 0 0 2.5 0l63.7-62.4a7 7 0 0 1 9.8 0l63.7 62.4a1.7 1.7 0 0 0 2.5 0l63.7-62.4a7 7 0 0 1 9.8 0Z" fill="#fff"/>
</svg>
