<?xml version="1.0" encoding="UTF-8"?>
<svg version="1.1" xmlns="http://www.w3.org/2000/svg" width="801" height="275" viewBox="0 0 801 275">
<path d="M0 0 C264.33 0 528.66 0 801 0 C801 90.75 801 181.5 801 275 C536.67 275 272.34 275 0 275 C0 184.25 0 93.5 0 0 Z " fill="#010101" transform="translate(0,0)"/>
<path d="M0 0 C12.9003482 9.86728924 23.88736061 24.48227202 26.77734375 40.79589844 C29.54021725 62.63986707 25.6970193 81.49145797 12.30859375 99.26953125 C5.71411722 107.04698639 -1.84803676 112.76049626 -10.87890625 117.39453125 C-11.49830078 117.71631348 -12.11769531 118.0380957 -12.75585938 118.36962891 C-22.9988394 123.34636971 -33.41786858 124.55545963 -44.69140625 124.45703125 C-45.92133301 124.44873291 -47.15125977 124.44043457 -48.41845703 124.43188477 C-67.42991996 124.07963493 -84.97146224 118.46856209 -98.94140625 105.01953125 C-114.28989139 88.60728971 -120.05366034 71.41449773 -119.31640625 49.296875 C-118.31871414 31.88402993 -110.4891523 16.98715891 -97.94140625 5.01953125 C-70.14521418 -19.49788465 -30.34234261 -20.42970478 0 0 Z " fill="#FCFCFC" transform="translate(301.94140625,62.98046875)"/>
<path d="M0 0 C86.96846505 0 86.96846505 0 103.625 16 C109.53655846 22.41466981 112.47800096 28.7111369 115 37 C115.33 37.99 115.66 38.98 116 40 C117.06798106 54.60082678 115.75765248 67.51190544 105.8203125 79.10546875 C101.02024461 84.10124756 96.11712337 87.75417944 90 91 C91.59481553 95.81226315 94.30703378 99.50336693 97.25 103.5625 C98.32336738 105.06347987 99.39626295 106.56479723 100.46875 108.06640625 C101.03722656 108.85934082 101.60570312 109.65227539 102.19140625 110.46923828 C105.40225152 114.96216782 108.57703633 119.48027687 111.75 124 C112.37036133 124.87857666 112.99072266 125.75715332 113.62988281 126.66235352 C114.20061523 127.47502686 114.77134766 128.2877002 115.359375 129.125 C115.86952148 129.84945312 116.37966797 130.57390625 116.90527344 131.3203125 C118 133 118 133 118 134 C113.44726373 134.27382288 108.89939079 134.47230307 104.34033203 134.60424805 C102.79358419 134.65927006 101.24740097 134.73412755 99.70263672 134.82983398 C86.91861466 135.60149703 86.91861466 135.60149703 82.35009766 131.78808594 C80.28164107 128.95467774 78.62592132 126.10532367 77 123 C76.02993738 121.56551603 75.03981019 120.14424038 74.0234375 118.7421875 C73.13906652 117.45419371 72.25621175 116.16515732 71.375 114.875 C70.93671875 114.23691406 70.4984375 113.59882813 70.046875 112.94140625 C69.60601562 112.29816406 69.16515625 111.65492188 68.7109375 110.9921875 C68.25831543 110.35498779 67.80569336 109.71778809 67.33935547 109.0612793 C66 107 66 107 64.85205078 104.54223633 C63.46018506 101.81224592 62.32606591 100.01093559 60 98 C55.02468063 96.74456691 50.23218926 96.83346153 45.125 96.9375 C40.46375 96.958125 35.8025 96.97875 31 97 C31 109.21 31 121.42 31 134 C20.77 134 10.54 134 0 134 C0 89.78 0 45.56 0 0 Z " fill="#FDFDFD" transform="translate(349,51)"/>
<path d="M0 0 C3.21260269 2.43486375 6.26034909 5.03472199 9.23291016 7.75537109 C8.77742291 12.05719505 6.01423453 14.35234426 3.04541016 17.19287109 C2.30037231 17.92147339 2.30037231 17.92147339 1.5402832 18.66479492 C-1.76694078 21.87263474 -5.14227404 24.91429925 -8.76708984 27.75537109 C-11.6487804 26.42243053 -13.94361246 24.89124827 -16.39208984 22.88037109 C-28.0725696 13.91730126 -41.66699752 13.78231094 -55.76708984 14.75537109 C-66.57247014 16.79742461 -75.55463302 23.81510963 -81.76708984 32.75537109 C-87.36000884 43.85646789 -88.69685415 57.01643843 -86.01318359 69.16943359 C-84.25823195 74.16588417 -82.01623806 78.55059105 -78.76708984 82.75537109 C-78.22568359 83.58101562 -78.22568359 83.58101562 -77.67333984 84.42333984 C-72.74471337 91.23025384 -63.87616987 95.59085088 -55.80224609 97.43115234 C-45.28235993 98.55489823 -36.33541261 98.24179136 -26.34130859 94.63037109 C-23.76708984 93.75537109 -23.76708984 93.75537109 -20.76708984 93.75537109 C-20.76708984 80.55537109 -20.76708984 67.35537109 -20.76708984 53.75537109 C-11.52708984 53.75537109 -2.28708984 53.75537109 7.23291016 53.75537109 C7.43971973 61.48136821 7.6187758 69.1977546 7.72729492 76.92431641 C7.77252582 79.55127508 7.83392264 82.17800755 7.91186523 84.80419922 C8.02119201 88.58276113 8.07211092 92.35832759 8.11181641 96.13818359 C8.15826797 97.31027374 8.20471954 98.48236389 8.25257874 99.68997192 C8.25750923 107.6733511 8.25750923 107.6733511 5.28942871 110.80776978 C2.99286842 112.3652398 0.75279891 113.60087 -1.76708984 114.75537109 C-2.89373047 115.33544922 -4.02037109 115.91552734 -5.18115234 116.51318359 C-8.68431985 118.00479993 -12.20488429 119.41057239 -15.76708984 120.75537109 C-17.3584375 121.38185547 -17.3584375 121.38185547 -18.98193359 122.02099609 C-37.95115188 128.30717812 -62.52827211 126.92963114 -80.76708984 118.75537109 C-88.69687304 114.49061374 -95.35886377 109.04268724 -101.76708984 102.75537109 C-102.40517578 102.14177734 -103.04326172 101.52818359 -103.70068359 100.89599609 C-115.73563866 88.35176676 -120.43854904 70.35307026 -120.31030273 53.39208984 C-119.83827313 40.56269303 -116.36174747 28.20046577 -108.76708984 17.75537109 C-108.09226562 16.73636719 -108.09226562 16.73636719 -107.40380859 15.69677734 C-99.62429765 4.45483618 -88.47233431 -3.66324173 -75.82958984 -8.49462891 C-75.18554199 -8.74108154 -74.54149414 -8.98753418 -73.87792969 -9.24145508 C-49.79921125 -17.95981959 -21.02638561 -14.80968691 0 0 Z " fill="#FCFCFC" transform="translate(600.76708984375,62.24462890625)"/>
<path d="M0 0 C33.33 0 66.66 0 101 0 C101 8.25 101 16.5 101 25 C77.57 25 54.14 25 30 25 C30 34.57 30 44.14 30 54 C50.46 54 70.92 54 92 54 C92 61.92 92 69.84 92 78 C71.54 78 51.08 78 30 78 C30 88.56 30 99.12 30 110 C54.09 110 78.18 110 103 110 C103 117.92 103 125.84 103 134 C69.01 134 35.02 134 0 134 C0 89.78 0 45.56 0 0 Z " fill="#FDFDFD" transform="translate(630,51)"/>
<path d="M0 0 C33.66 0 67.32 0 102 0 C102 8.25 102 16.5 102 25 C78.57 25 55.14 25 31 25 C31 61.3 31 97.6 31 135 C20.77 135 10.54 135 0 135 C0 90.45 0 45.9 0 0 Z " fill="#FAFAFA" transform="translate(70,51)"/>
<path d="M0 0 C11.44008755 6.7652345 18.25156821 14.94644863 22.4375 27.53125 C25.35852544 39.86446852 23.77380168 51.73861263 17.4140625 62.703125 C10.61576507 73.36712096 2.72852319 79.24788576 -9.6484375 82.390625 C-23.13270513 84.08677908 -35.69770927 81.75511742 -46.6484375 73.390625 C-46.6484375 72.730625 -46.6484375 72.070625 -46.6484375 71.390625 C-47.3084375 71.390625 -47.9684375 71.390625 -48.6484375 71.390625 C-48.6484375 70.730625 -48.6484375 70.070625 -48.6484375 69.390625 C-49.6384375 69.060625 -50.6284375 68.730625 -51.6484375 68.390625 C-53.40234375 65.6953125 -53.40234375 65.6953125 -55.2109375 62.265625 C-55.81035156 61.14929688 -56.40976563 60.03296875 -57.02734375 58.8828125 C-61.85101465 48.49157929 -62.62800819 35.6300674 -58.6796875 24.75390625 C-53.47629755 12.82947095 -46.92360849 4.43043097 -34.6484375 -0.609375 C-33.95492187 -0.96515625 -33.26140625 -1.3209375 -32.546875 -1.6875 C-23.08241014 -4.69776106 -9.00852089 -4.06098402 0 0 Z " fill="#010101" transform="translate(274.6484375,78.609375)"/>
<path d="M0 0 C5.56875 -0.0825 11.1375 -0.165 16.875 -0.25 C18.61120605 -0.28641602 20.34741211 -0.32283203 22.13623047 -0.36035156 C39.97378589 -0.58043299 39.97378589 -0.58043299 46.92138672 5.75097656 C52.81438756 12.04680858 53.46323969 18.1210897 53.3046875 26.55078125 C52.80246919 32.23615002 51.30356557 35.81406331 47.1640625 39.7421875 C40.77263863 44.86022424 34.91271823 46.31040007 26.7578125 46.1953125 C26.07581787 46.19329834 25.39382324 46.19128418 24.69116211 46.18920898 C22.16903862 46.17882757 19.64701181 46.15090558 17.125 46.125 C8.648125 46.063125 8.648125 46.063125 0 46 C0 30.82 0 15.64 0 0 Z " fill="#000000" transform="translate(380,77)"/>
<path d="M0 0 C8.91 0 17.82 0 27 0 C27 8.25 27 16.5 27 25 C18.09 25 9.18 25 0 25 C0 16.75 0 8.5 0 0 Z " fill="#F70115" transform="translate(119,112)"/>
<path d="M0 0 C3.1539576 2.15553497 5.91737553 4.2139048 6.92578125 8.0234375 C7.3993596 12.28564262 7.22408738 14.4694404 5.17578125 18.2734375 C2.49025293 21.55574989 0.6020497 23.71958219 -3.66015625 24.4921875 C-12.12195743 24.5869976 -12.12195743 24.5869976 -15.63671875 21.8359375 C-19.25991691 17.65532424 -20.30214714 15.00527335 -20.01171875 9.5234375 C-19.38415451 4.98682853 -17.76526374 2.83566225 -14.07421875 0.0234375 C-9.41682527 -1.52902699 -4.56325386 -2.1484246 0 0 Z " fill="#EEEEEE" transform="translate(118.07421875,216.9765625)"/>
<path d="M0 0 C3.35504098 1.21714832 6.1984062 2.74265053 8.16796875 5.83203125 C9.69315175 9.80609962 9.55550172 13.82018828 9 18 C6.86633493 21.65771154 4.85753296 23.39849715 1 25 C-4.04836331 25.7164344 -7.94369429 25.54701546 -12.5 23.1875 C-15.10464986 20.90843138 -16.77536605 19.23548672 -17.40625 15.765625 C-17.58978424 10.84078949 -17.39046788 7.78438045 -14.125 3.9375 C-9.84770643 -0.45344147 -5.95978801 -0.71088975 0 0 Z " fill="#EEEEEE" transform="translate(659,216)"/>
<path d="M0 0 C14.11583302 -0.43211734 14.11583302 -0.43211734 19 3 C21 5 21 5 21.3125 8.375 C20.99332949 12.07737797 20.63846047 13.46301878 18 16 C17.34 16 16.68 16 16 16 C17.65 18.97 19.3 21.94 21 25 C19.35 25 17.7 25 16 25 C15.38125 24.030625 14.7625 23.06125 14.125 22.0625 C12.23913311 18.61388207 12.23913311 18.61388207 8.25 18.125 C7.1775 18.08375 6.105 18.0425 5 18 C5 20.31 5 22.62 5 25 C3.35 25 1.7 25 0 25 C0 16.75 0 8.5 0 0 Z " fill="#EDEDED" transform="translate(610,216)"/>
<path d="M0 0 C2.206875 -0.061875 4.41375 -0.12375 6.6875 -0.1875 C8.54955078 -0.23970703 8.54955078 -0.23970703 10.44921875 -0.29296875 C14.21666932 0.01787701 16.02794917 0.7227143 19 3 C20.5635348 6.12706959 20.39958487 9.57982443 20 13 C19.01 14.485 19.01 14.485 18 16 C17.34 16 16.68 16 16 16 C17.65 18.97 19.3 21.94 21 25 C19.35 25 17.7 25 16 25 C12 20.89189189 12 20.89189189 12 18 C9.69 18 7.38 18 5 18 C5 20.31 5 22.62 5 25 C3.35 25 1.7 25 0 25 C0 16.75 0 8.5 0 0 Z " fill="#EEEEEE" transform="translate(431,216)"/>
<path d="M0 0 C14.06020328 -0.43041439 14.06020328 -0.43041439 19 3 C20.65766798 4.65766798 20.21049503 6.60346405 20.25 8.875 C20.27578125 9.75929687 20.3015625 10.64359375 20.328125 11.5546875 C20 14 20 14 18.671875 15.7578125 C15.6457995 18.00615832 12.94307546 18.11511704 9.3125 18.0625 C8.10013672 18.04896484 8.10013672 18.04896484 6.86328125 18.03515625 C6.24839844 18.02355469 5.63351562 18.01195312 5 18 C5 20.31 5 22.62 5 25 C3.35 25 1.7 25 0 25 C0 16.75 0 8.5 0 0 Z " fill="#F0F0F0" transform="translate(716,216)"/>
<path d="M0 0 C5 0 5 0 7.3515625 2.265625 C8.10179687 3.25046875 8.85203125 4.2353125 9.625 5.25 C10.38039063 6.22453125 11.13578125 7.1990625 11.9140625 8.203125 C12.60242188 9.12609375 13.29078125 10.0490625 14 11 C14.99 12.32 15.98 13.64 17 15 C17.33 10.05 17.66 5.1 18 0 C19.65 0 21.3 0 23 0 C23 8.25 23 16.5 23 25 C18 25 18 25 15.76171875 22.8828125 C15.07722656 21.97273438 14.39273437 21.06265625 13.6875 20.125 C12.99011719 19.22007812 12.29273438 18.31515625 11.57421875 17.3828125 C10 15 10 15 10 13 C9.34 13 8.68 13 8 13 C7.34 12.01 6.68 11.02 6 10 C5.67 14.95 5.34 19.9 5 25 C3.35 25 1.7 25 0 25 C0 16.75 0 8.5 0 0 Z " fill="#E5E5E5" transform="translate(363,216)"/>
<path d="M0 0 C1.65 0 3.3 0 5 0 C6.67585347 3.59996502 8.33908513 7.20562136 10 10.8125 C10.47695313 11.83666016 10.95390625 12.86082031 11.4453125 13.91601562 C11.89648438 14.89892578 12.34765625 15.88183594 12.8125 16.89453125 C13.23144531 17.80050049 13.65039062 18.70646973 14.08203125 19.63989258 C15 22 15 22 15 25 C13.35 25 11.7 25 10 25 C9.34 23.35 8.68 21.7 8 20 C4.04 19.67 0.08 19.34 -4 19 C-4.66 20.98 -5.32 22.96 -6 25 C-7.65 25 -9.3 25 -11 25 C-8.4621689 16.11759114 -4.22230349 8.17381793 0 0 Z " fill="#EDEDED" transform="translate(472,216)"/>
<path d="M0 0 C5.94 0 11.88 0 18 0 C18 1.32 18 2.64 18 4 C13.71 4 9.42 4 5 4 C5 5.98 5 7.96 5 10 C8.96 10 12.92 10 17 10 C17 11.32 17 12.64 17 14 C13.04 14 9.08 14 5 14 C5 16.31 5 18.62 5 21 C9.62 21 14.24 21 19 21 C19 22.32 19 23.64 19 25 C12.73 25 6.46 25 0 25 C0 16.75 0 8.5 0 0 Z " fill="#EBEBEB" transform="translate(332,216)"/>
<path d="M0 0 C5.94 0 11.88 0 18 0 C18 1.32 18 2.64 18 4 C13.71 4 9.42 4 5 4 C5 5.98 5 7.96 5 10 C8.96 10 12.92 10 17 10 C17 11.32 17 12.64 17 14 C13.04 14 9.08 14 5 14 C5 16.31 5 18.62 5 21 C9.62 21 14.24 21 19 21 C19 22.32 19 23.64 19 25 C12.73 25 6.46 25 0 25 C0 16.75 0 8.5 0 0 Z " fill="#ECECEC" transform="translate(249,216)"/>
<path d="M0 0 C5.94 0 11.88 0 18 0 C18 1.32 18 2.64 18 4 C13.71 4 9.42 4 5 4 C5 5.98 5 7.96 5 10 C8.96 10 12.92 10 17 10 C17 11.32 17 12.64 17 14 C13.04 14 9.08 14 5 14 C5 16.31 5 18.62 5 21 C9.62 21 14.24 21 19 21 C19 22.32 19 23.64 19 25 C12.73 25 6.46 25 0 25 C0 16.75 0 8.5 0 0 Z " fill="#EBEBEB" transform="translate(189,216)"/>
<path d="M0 0 C3.0625 1 3.0625 1 5 2 C4.67 3.32 4.34 4.64 4 6 C3.18015625 5.88140625 2.3603125 5.7628125 1.515625 5.640625 C0.43796875 5.51171875 -0.6396875 5.3828125 -1.75 5.25 C-2.81734375 5.11078125 -3.8846875 4.9715625 -4.984375 4.828125 C-8.09342783 4.72236582 -8.09342783 4.72236582 -10.35546875 6.80078125 C-12.21244216 8.94969242 -12.21244216 8.94969242 -12.5625 11.9375 C-11.79477021 16.11736219 -10.42123173 17.52506641 -7 20 C-3.28999282 20.41831404 -3.28999282 20.41831404 0 20 C0.33 17.36 0.66 14.72 1 12 C2.65 12 4.3 12 6 12 C6.10824843 13.6026782 6.18570645 15.20745748 6.25 16.8125 C6.29640625 17.70582031 6.3428125 18.59914062 6.390625 19.51953125 C6 22 6 22 4.3515625 23.79296875 C-0.17413347 26.11595888 -5.06484251 25.71820049 -10 25 C-12.7921614 23.63273147 -13.91812769 22.41947322 -16 20 C-17.44731488 15.65805537 -17.65892365 11.5328154 -17 7 C-12.08404621 0.62254644 -7.66820042 -0.69832999 0 0 Z " fill="#E9E9E9" transform="translate(591,216)"/>
<path d="M0 0 C3.5625 1.5 3.5625 1.5 6 3 C6 3.66 6 4.32 6 5 C2.25 6.125 2.25 6.125 0 5 C-3.47348974 4.74270446 -6.16655709 4.67944503 -9.4375 5.9375 C-11.6426188 8.84825681 -11.4395449 11.27305769 -11.43359375 14.84375 C-10.89583419 17.51801377 -10.21577623 18.42799659 -8 20 C-5.94636394 20.3606631 -5.94636394 20.3606631 -3.8125 20.1875 C-2.554375 20.125625 -1.29625 20.06375 0 20 C0.33 17.36 0.66 14.72 1 12 C2.65 12 4.3 12 6 12 C6 15.63 6 19.26 6 23 C0.84388235 25.57805883 -3.32141132 25.67387015 -9 25 C-13.18138588 22.94598588 -15.25145659 21.26207457 -17 17 C-17.6502915 13.2351545 -17.86218337 9.56851051 -15.984375 6.15234375 C-11.19844457 0.28525434 -7.20662347 -0.8456752 0 0 Z " fill="#EBEBEB" transform="translate(313,216)"/>
<path d="M0 0 C5.94 0 11.88 0 18 0 C18 1.32 18 2.64 18 4 C13.38 4 8.76 4 4 4 C4.33 5.98 4.66 7.96 5 10 C8.63 10.33 12.26 10.66 16 11 C16 11.99 16 12.98 16 14 C12.04 14 8.08 14 4 14 C4 16.31 4 18.62 4 21 C8.95 21 13.9 21 19 21 C19 22.32 19 23.64 19 25 C12.73 25 6.46 25 0 25 C0 16.75 0 8.5 0 0 Z " fill="#F6F6F6" transform="translate(527,216)"/>
<path d="M0 0 C1.65 0 3.3 0 5 0 C5.04898438 1.19238281 5.09796875 2.38476562 5.1484375 3.61328125 C5.22347604 5.17971068 5.2990234 6.74611579 5.375 8.3125 C5.4059375 9.09818359 5.436875 9.88386719 5.46875 10.69335938 C5.50742187 11.45068359 5.54609375 12.20800781 5.5859375 12.98828125 C5.6173584 13.68477783 5.6487793 14.38127441 5.68115234 15.09887695 C5.92118253 17.32532739 5.92118253 17.32532739 8 20 C11.58357241 20.25015873 11.58357241 20.25015873 15 20 C17.47045803 16.18384532 17.43831912 12.15255752 17.625 7.75 C17.66367187 7.00492188 17.70234375 6.25984375 17.7421875 5.4921875 C17.83605108 3.6618476 17.91909718 1.83095857 18 0 C19.32 0 20.64 0 22 0 C22.10822792 3.06345144 22.18741479 6.1230601 22.25 9.1875 C22.30027344 10.48397461 22.30027344 10.48397461 22.3515625 11.80664062 C22.41676616 16.0611794 22.39830711 18.35727716 20.109375 22.05078125 C16.37650312 25.50023137 13.33667541 25.34118167 8.4140625 25.27734375 C6 25 6 25 3.5 23.375 C0.20743518 18.16177237 -0.27722169 13.16703018 -0.125 7.125 C-0.11146484 6.09246094 -0.11146484 6.09246094 -0.09765625 5.0390625 C-0.07432513 3.35922162 -0.03846326 1.67956254 0 0 Z " fill="#EFEFEF" transform="translate(680,216)"/>
<path d="M0 0 C5.94 0 11.88 0 18 0 C18 1.32 18 2.64 18 4 C13.38 4 8.76 4 4 4 C4 6.31 4 8.62 4 11 C7.96 11 11.92 11 16 11 C16 11.99 16 12.98 16 14 C12.04 14 8.08 14 4 14 C4 16.31 4 18.62 4 21 C8.62 21 13.24 21 18 21 C18 22.32 18 23.64 18 25 C12.06 25 6.12 25 0 25 C0 16.75 0 8.5 0 0 Z " fill="#F7F7F7" transform="translate(400,216)"/>
<path d="M0 0 C1.17755859 -0.02126953 1.17755859 -0.02126953 2.37890625 -0.04296875 C4.4375 0.1875 4.4375 0.1875 6.4375 2.1875 C6.4375 3.1775 6.4375 4.1675 6.4375 5.1875 C2.8075 5.1875 -0.8225 5.1875 -4.5625 5.1875 C-4.5625 6.5075 -4.5625 7.8275 -4.5625 9.1875 C-3.79164062 9.44144531 -3.02078125 9.69539062 -2.2265625 9.95703125 C-1.22367188 10.30121094 -0.22078125 10.64539063 0.8125 11 C2.30910156 11.50466797 2.30910156 11.50466797 3.8359375 12.01953125 C6.4375 13.1875 6.4375 13.1875 8.4375 16.1875 C8.36262071 19.78170569 8.1154536 21.53141587 5.5 24.0625 C0.58560792 25.86778689 -4.99897206 26.3196164 -9.87109375 24.16796875 C-10.42925781 23.84441406 -10.98742187 23.52085937 -11.5625 23.1875 C-11.2325 21.8675 -10.9025 20.5475 -10.5625 19.1875 C-10.00046875 19.35121094 -9.4384375 19.51492187 -8.859375 19.68359375 C-6.43190944 20.21614997 -4.29360319 20.28648681 -1.8125 20.25 C-0.61367187 20.23646484 -0.61367187 20.23646484 0.609375 20.22265625 C1.21265625 20.21105469 1.8159375 20.19945312 2.4375 20.1875 C2.4375 19.1975 2.4375 18.2075 2.4375 17.1875 C1.75042969 16.92195313 1.06335938 16.65640625 0.35546875 16.3828125 C-0.54558594 16.02960938 -1.44664063 15.67640625 -2.375 15.3125 C-3.26832031 14.96445313 -4.16164063 14.61640625 -5.08203125 14.2578125 C-7.5625 13.1875 -7.5625 13.1875 -10.5625 11.1875 C-11.22317416 5.13132022 -11.22317416 5.13132022 -9.25 2.3125 C-6.23234708 0.30073139 -3.52561675 0.02904132 0 0 Z " fill="#ECECEC" transform="translate(79.5625,215.8125)"/>
<path d="M0 0 C3.34265205 1.20706879 3.94704566 1.92056849 6 5 C6.22064752 9.05991438 5.92401195 12.8272156 3.375 16.0625 C-0.03196341 17.40735398 -2.36732318 17.50984938 -6 17 C-9.69186542 14.40783917 -10.82883761 12.95850936 -11.625 8.5 C-10.43770475 1.85114658 -6.64836107 -0.99018144 0 0 Z " fill="#040404" transform="translate(114,220)"/>
<path d="M0 0 C3.69824535 2.05458075 4.7810498 3.3431494 6.125 7.375 C6 11 6 11 4.0625 14.4375 C0.48317601 17.43244456 0.48317601 17.43244456 -3.0625 17.625 C-7 17 -7 17 -9.5 15.5625 C-11.72920717 11.75427109 -11.90705593 8.29865635 -11 4 C-7.77123438 0.10648852 -4.96361941 -0.8272699 0 0 Z " fill="#050505" transform="translate(658,220)"/>
<path d="M0 0 C2.30859375 1.5234375 2.30859375 1.5234375 4 3 C3.34 4.32 2.68 5.64 2 7 C1.29875 6.67 0.5975 6.34 -0.125 6 C-4.39191269 4.51585646 -7.73173805 4.57724602 -12 6 C-12.19551338 7.60320974 -12.38111983 9.20762986 -12.5625 10.8125 C-12.66691406 11.70582031 -12.77132812 12.59914062 -12.87890625 13.51953125 C-13.15658709 16.13375572 -13.15658709 16.13375572 -12 19 C-4.45952096 20.07859862 -4.45952096 20.07859862 3 19 C3 20.32 3 21.64 3 23 C-1.56131079 25.61697324 -5.85371712 25.79548221 -11 25 C-14.44072683 23.30070226 -16.48634339 20.91057308 -18.375 17.5625 C-19.51376089 12.89358034 -19.59999457 10.13332307 -17.3125 5.8125 C-12.49565052 -0.04583045 -7.40183101 -1.22762075 0 0 Z " fill="#EAEAEA" transform="translate(154,216)"/>
<path d="M0 0 C6.93 0 13.86 0 21 0 C21 1.32 21 2.64 21 4 C18.36 4 15.72 4 13 4 C13 10.93 13 17.86 13 25 C11.35 25 9.7 25 8 25 C8 18.07 8 11.14 8 4 C5.36 4 2.72 4 0 4 C0 2.68 0 1.36 0 0 Z " fill="#ECECEC" transform="translate(217,216)"/>
<path d="M0 0 C1.65 0 3.3 0 5 0 C5 6.93 5 13.86 5 21 C9.29 21 13.58 21 18 21 C18 22.32 18 23.64 18 25 C12.06 25 6.12 25 0 25 C0 16.75 0 8.5 0 0 Z " fill="#EDEDED" transform="translate(498,216)"/>
<path d="M0 0 C1.65 0 3.3 0 5 0 C5 8.25 5 16.5 5 25 C3.35 25 1.7 25 0 25 C0 16.75 0 8.5 0 0 Z " fill="#E9E9E9" transform="translate(170,216)"/>
<path d="M0 0 C1.258125 -0.04125 2.51625 -0.0825 3.8125 -0.125 C4.52019531 -0.14820313 5.22789062 -0.17140625 5.95703125 -0.1953125 C8 0 8 0 11 2 C11.3125 5 11.3125 5 11 8 C9 10 9 10 6.8359375 10.1953125 C4.55729167 10.13020833 2.27864583 10.06510417 0 10 C0 6.7 0 3.4 0 0 Z " fill="#090909" transform="translate(721,220)"/>
<path d="M0 0 C1.258125 -0.04125 2.51625 -0.0825 3.8125 -0.125 C4.52019531 -0.14820313 5.22789062 -0.17140625 5.95703125 -0.1953125 C8 0 8 0 11 2 C10.74438677 4.3431213 10.40729228 6.67843403 10 9 C6.78548731 10.60725635 3.56387464 10.05748185 0 10 C0 6.7 0 3.4 0 0 Z " fill="#070707" transform="translate(615,220)"/>
<path d="M0 0 C7.37042925 -0.36248013 7.37042925 -0.36248013 10.0625 1.1875 C11 3 11 3 10.8125 5.5625 C10 8 10 8 8 10 C5.31160615 10.26991906 2.70858064 10.08737357 0 10 C0 6.7 0 3.4 0 0 Z " fill="#080808" transform="translate(436,220)"/>
<path d="M0 0 C0.66 0 1.32 0 2 0 C3.32 3.3 4.64 6.6 6 10 C3.03 10 0.06 10 -3 10 C-2.05066101 6.64566891 -1.10251165 3.30753495 0 0 Z " fill="#1B1B1B" transform="translate(473,222)"/>
</svg>